<svg width="24" height="25" viewBox="0 0 24 25" fill="none" xmlns="http://www.w3.org/2000/svg">
<g clip-path="url(#clip0_9222_9055)">
<path d="M5.28943 7.76108C6.36344 6.08009 7.95737 4.79614 9.8285 4.10472C11.6996 3.4133 13.7455 3.3523 15.6545 3.931C17.5635 4.5097 19.2311 5.6964 20.4033 7.3104C21.5756 8.9244 22.1883 10.8773 22.1481 12.8717C22.108 14.8661 21.4172 16.7927 20.1809 18.3582C18.9446 19.9237 17.2306 21.0423 15.2999 21.5437C13.3691 22.0451 11.3274 21.9018 9.48564 21.1357C7.64385 20.3695 6.10289 19.0225 5.09741 17.2996" stroke="white" stroke-width="1.7" stroke-linecap="round"/>
<path fill-rule="evenodd" clip-rule="evenodd" d="M12.3415 7.92165C12.0197 7.59234 11.5164 7.61288 11.2175 7.96752C10.9186 8.32216 10.9372 8.87662 11.2591 9.20593L13.8057 11.8112H1.79536C1.35609 11.8112 1 12.2035 1 12.6875C1 13.1715 1.35609 13.5638 1.79536 13.5638H13.8057L11.2591 16.1691C10.9372 16.4984 10.9186 17.0528 11.2175 17.4075C11.5164 17.7621 12.0197 17.7827 12.3415 17.4533L17 12.6875L12.3415 7.92165Z" fill="white"/>
</g>
<defs>
<clipPath id="clip0_9222_9055">
<rect y="0.6875" width="24" height="24" rx="4" fill="white"/>
</clipPath>
</defs>
</svg>
